<svg xmlns="http://www.w3.org/2000/svg" xmlns:xlink="http://www.w3.org/1999/xlink" width="250" zoomAndPan="magnify" viewBox="0 0 187.5 74.999997" height="100" preserveAspectRatio="xMidYMid meet" version="1.0"><defs><g/><clipPath id="bc369df6b4"><path d="M 1.347656 6.9375 L 54 6.9375 L 54 67.527344 L 1.347656 67.527344 Z M 1.347656 6.9375 " clip-rule="nonzero"/></clipPath><clipPath id="636db8e918"><rect x="0" width="132" y="0" height="28"/></clipPath></defs><path fill="#2c7c63" d="M 19.703125 24.46875 L 21.144531 24.453125 C 21.148438 26.019531 20.898438 27.683594 22.03125 28.941406 C 22.59375 29.570312 23.355469 30.003906 24.195312 30.121094 C 24.679688 30.1875 25.191406 30.160156 25.679688 30.183594 L 25.691406 33.945312 L 23.527344 33.96875 L 23.390625 33.945312 L 20.117188 30.707031 L 18.761719 29.351562 C 18.394531 28.984375 17.914062 28.585938 17.738281 28.085938 C 17.523438 27.472656 17.609375 26.726562 17.898438 26.152344 C 18.261719 25.425781 18.921875 24.722656 19.703125 24.46875 Z M 48.835938 22.75 L 48.796875 25.34375 L 37.652344 36.664062 L 35.328125 39.003906 C 35.226562 39.105469 34.902344 39.507812 34.785156 39.550781 C 34.734375 39.570312 34.574219 39.546875 34.507812 39.546875 L 33.824219 39.539062 L 29.859375 39.539062 L 29.847656 42.292969 L 31.203125 42.300781 L 35.90625 42.335938 L 39.253906 39.070312 L 44.648438 33.6875 L 47.789062 30.550781 C 48.390625 29.953125 49.054688 29.355469 49.578125 28.6875 C 49.941406 28.21875 50.191406 27.609375 50.308594 27.027344 L 50.324219 26.933594 C 50.402344 26.546875 50.421875 26.164062 50.394531 25.769531 C 50.304688 24.5 49.78125 23.566406 48.835938 22.75 Z M 44.535156 16.265625 L 44.429688 16.292969 C 44.648438 16.714844 44.855469 17.101562 44.902344 17.585938 C 44.953125 18.074219 44.910156 18.605469 44.910156 19.101562 L 44.910156 22.230469 L 44.914062 23.246094 C 44.914062 23.3125 44.933594 23.496094 44.914062 23.550781 C 44.898438 23.589844 44.773438 23.691406 44.730469 23.730469 L 44.15625 24.304688 L 38.910156 29.417969 L 35.730469 32.570312 L 34.003906 34.242188 C 33.671875 34.5625 33.320312 34.875 33.027344 35.234375 L 32.988281 35.285156 L 29.851562 35.238281 L 29.847656 38.125 L 32.125 38.148438 C 32.390625 38.148438 33.945312 38.199219 34.0625 38.144531 C 34.1875 38.082031 34.414062 37.789062 34.519531 37.683594 L 36.15625 36.023438 L 45.390625 26.621094 L 47.335938 24.59375 L 47.339844 21.589844 C 47.339844 20.957031 47.363281 20.316406 47.296875 19.691406 C 47.25 19.226562 47.101562 18.773438 46.902344 18.355469 C 46.421875 17.339844 45.582031 16.636719 44.535156 16.265625 Z M 33.28125 13.066406 C 33.371094 12.980469 33.480469 12.921875 33.597656 12.878906 C 33.980469 12.742188 34.351562 12.835938 34.699219 13.011719 C 34.890625 13.808594 34.78125 14.660156 34.355469 15.363281 C 33.835938 16.210938 32.945312 16.886719 31.96875 17.105469 L 31.433594 17.183594 L 29.835938 17.210938 L 29.832031 26.007812 L 29.816406 27.832031 C 29.8125 28.003906 29.757812 28.351562 29.800781 28.507812 C 29.8125 28.546875 29.847656 28.578125 29.867188 28.613281 C 30.40625 28.773438 31.289062 28.652344 31.777344 28.386719 C 32.246094 28.132812 32.632812 27.6875 32.773438 27.171875 C 32.882812 26.785156 32.871094 26.394531 32.871094 26 L 32.871094 20.421875 C 32.867188 19.960938 32.792969 19.355469 32.886719 18.90625 C 32.917969 18.757812 33.039062 18.617188 33.171875 18.546875 C 33.355469 18.445312 33.761719 18.417969 33.949219 18.503906 C 34.097656 18.570312 34.246094 18.683594 34.296875 18.84375 C 34.398438 19.148438 34.335938 19.652344 34.335938 19.976562 C 34.335938 20.964844 34.28125 21.980469 34.367188 22.960938 L 35.855469 22.960938 C 36.074219 22.953125 36.359375 22.957031 36.5625 22.875 C 36.988281 22.707031 37.390625 22.292969 37.722656 21.980469 C 38.101562 21.625 38.652344 21.1875 38.90625 20.738281 C 38.617188 20.113281 38.066406 19.621094 37.589844 19.140625 L 35.957031 17.507812 C 36.757812 16.476562 37.246094 15.226562 37.066406 13.898438 C 36.886719 12.585938 36.207031 11.316406 35.125 10.519531 C 34.339844 9.9375 33.382812 9.6875 32.410156 9.839844 C 31.648438 9.960938 30.839844 10.519531 30.402344 11.144531 C 29.734375 12.09375 29.828125 13.152344 29.828125 14.253906 C 29.824219 14.625 29.78125 15.070312 29.835938 15.433594 C 29.847656 15.496094 29.847656 15.546875 29.90625 15.582031 C 30.082031 15.679688 30.328125 15.660156 30.523438 15.664062 C 31.054688 15.667969 31.5625 15.675781 32.070312 15.488281 C 32.585938 15.300781 32.96875 14.933594 33.1875 14.433594 C 33.257812 14.277344 33.289062 14.128906 33.3125 13.957031 L 33.324219 13.871094 C 33.355469 13.59375 33.320312 13.339844 33.285156 13.066406 Z M 39.296875 12.027344 C 38.894531 11.988281 38.507812 12.023438 38.109375 12.085938 C 38.558594 13.207031 38.757812 14.535156 38.480469 15.734375 C 38.34375 16.308594 38.140625 16.75 37.859375 17.261719 L 38.507812 17.917969 C 39.121094 18.476562 39.773438 18.503906 40.558594 18.464844 C 40.558594 18.734375 40.597656 21.152344 40.554688 21.230469 C 40.417969 21.484375 40.007812 21.8125 39.792969 22.023438 C 39.152344 22.667969 38.492188 23.300781 37.894531 23.984375 C 38.304688 24.683594 38.890625 25.332031 39.390625 25.972656 C 39.617188 26.203125 39.941406 26.175781 40.246094 26.207031 C 40.589844 26.019531 40.964844 25.53125 41.246094 25.246094 L 43.429688 23.0625 L 43.441406 19.378906 C 43.441406 18.726562 43.5 18.015625 43.398438 17.371094 C 43.351562 17.085938 43.21875 16.777344 43.070312 16.53125 C 42.648438 15.84375 41.957031 15.613281 41.214844 15.441406 C 41.328125 15.25 41.429688 15.039062 41.480469 14.820312 C 41.605469 14.246094 41.46875 13.589844 41.132812 13.109375 C 40.6875 12.46875 40.046875 12.160156 39.296875 12.027344 Z M 35.832031 24.46875 L 34.386719 24.453125 C 34.382812 26.019531 34.636719 27.679688 33.503906 28.941406 C 32.9375 29.570312 32.179688 30.003906 31.335938 30.121094 C 30.855469 30.1875 30.34375 30.160156 29.855469 30.183594 L 29.839844 33.945312 L 32.003906 33.96875 L 32.144531 33.945312 L 35.417969 30.707031 L 36.773438 29.351562 C 37.140625 28.984375 37.617188 28.582031 37.792969 28.085938 C 38.011719 27.472656 37.925781 26.726562 37.636719 26.152344 C 37.269531 25.425781 36.613281 24.71875 35.832031 24.46875 Z M 6.699219 22.75 L 6.734375 25.34375 L 17.882812 36.664062 L 20.203125 39.003906 C 20.308594 39.105469 20.632812 39.507812 20.75 39.550781 C 20.800781 39.570312 20.957031 39.546875 21.023438 39.542969 L 21.707031 39.539062 L 25.675781 39.539062 L 25.683594 42.292969 L 24.328125 42.300781 L 19.625 42.335938 L 16.277344 39.070312 L 10.886719 33.6875 L 7.746094 30.550781 C 7.144531 29.953125 6.476562 29.355469 5.957031 28.683594 C 5.589844 28.21875 5.34375 27.609375 5.226562 27.027344 L 5.207031 26.933594 C 5.128906 26.546875 5.109375 26.164062 5.140625 25.769531 C 5.230469 24.5 5.75 23.566406 6.699219 22.75 Z M 11 16.265625 L 11.101562 16.292969 C 10.882812 16.714844 10.679688 17.101562 10.628906 17.585938 C 10.578125 18.074219 10.621094 18.605469 10.621094 19.101562 L 10.625 22.230469 L 10.621094 23.246094 C 10.621094 23.3125 10.597656 23.496094 10.617188 23.550781 C 10.632812 23.589844 10.761719 23.691406 10.800781 23.730469 L 11.378906 24.304688 L 16.621094 29.417969 L 19.800781 32.570312 L 21.53125 34.242188 C 21.859375 34.5625 22.210938 34.875 22.503906 35.234375 L 22.546875 35.285156 L 25.683594 35.238281 L 25.683594 38.125 L 23.40625 38.148438 C 23.144531 38.148438 21.585938 38.199219 21.472656 38.144531 C 21.347656 38.082031 21.121094 37.789062 21.015625 37.683594 L 19.378906 36.023438 L 10.144531 26.621094 L 8.195312 24.59375 L 8.195312 21.589844 C 8.195312 20.957031 8.167969 20.316406 8.234375 19.691406 C 8.285156 19.226562 8.429688 18.773438 8.628906 18.355469 C 9.113281 17.339844 9.953125 16.632812 11 16.265625 Z M 22.25 13.066406 C 22.164062 12.976562 22.054688 12.917969 21.9375 12.878906 C 21.550781 12.742188 21.183594 12.835938 20.832031 13.011719 C 20.644531 13.808594 20.75 14.660156 21.179688 15.363281 C 21.695312 16.210938 22.589844 16.886719 23.566406 17.105469 L 24.097656 17.179688 L 25.695312 17.210938 L 25.703125 26.007812 L 25.714844 27.832031 C 25.71875 28.003906 25.773438 28.351562 25.730469 28.507812 C 25.722656 28.546875 25.6875 28.578125 25.664062 28.613281 C 25.125 28.773438 24.246094 28.652344 23.753906 28.386719 C 23.285156 28.132812 22.902344 27.6875 22.757812 27.171875 C 22.652344 26.785156 22.664062 26.394531 22.664062 26 L 22.664062 20.421875 C 22.664062 19.960938 22.738281 19.355469 22.644531 18.90625 C 22.613281 18.757812 22.496094 18.617188 22.363281 18.546875 C 22.175781 18.445312 21.769531 18.417969 21.585938 18.503906 C 21.433594 18.570312 21.289062 18.683594 21.234375 18.84375 C 21.132812 19.144531 21.195312 19.652344 21.199219 19.976562 C 21.199219 20.960938 21.25 21.980469 21.164062 22.960938 L 19.679688 22.960938 C 19.460938 22.953125 19.175781 22.957031 18.972656 22.875 C 18.542969 22.703125 18.140625 22.289062 17.8125 21.980469 C 17.429688 21.625 16.882812 21.1875 16.628906 20.738281 C 16.917969 20.113281 17.464844 19.621094 17.945312 19.140625 L 19.578125 17.507812 C 18.777344 16.476562 18.285156 15.226562 18.46875 13.898438 C 18.648438 12.585938 19.324219 11.3125 20.40625 10.519531 C 21.195312 9.9375 22.148438 9.6875 23.121094 9.839844 C 23.882812 9.960938 24.691406 10.519531 25.132812 11.144531 C 25.800781 12.09375 25.703125 13.152344 25.707031 14.253906 C 25.707031 14.625 25.753906 15.070312 25.695312 15.433594 C 25.6875 15.496094 25.6875 15.546875 25.628906 15.582031 C 25.453125 15.679688 25.207031 15.660156 25.011719 15.664062 C 24.476562 15.667969 23.972656 15.675781 23.464844 15.488281 C 22.949219 15.296875 22.566406 14.933594 22.34375 14.433594 C 22.273438 14.277344 22.246094 14.128906 22.222656 13.957031 L 22.210938 13.871094 C 22.175781 13.59375 22.210938 13.339844 22.25 13.066406 Z M 16.234375 12.027344 C 16.640625 11.988281 17.023438 12.019531 17.425781 12.085938 C 16.972656 13.207031 16.773438 14.535156 17.054688 15.734375 C 17.1875 16.308594 17.394531 16.75 17.675781 17.261719 L 17.023438 17.917969 C 16.410156 18.476562 15.761719 18.503906 14.972656 18.464844 C 14.972656 18.730469 14.9375 21.152344 14.980469 21.226562 C 15.113281 21.484375 15.527344 21.808594 15.738281 22.023438 C 16.382812 22.667969 17.039062 23.296875 17.640625 23.984375 C 17.226562 24.683594 16.640625 25.332031 16.140625 25.972656 C 15.914062 26.203125 15.59375 26.175781 15.289062 26.207031 C 14.945312 26.019531 14.570312 25.53125 14.289062 25.246094 L 12.101562 23.0625 L 12.09375 19.378906 C 12.09375 18.726562 12.03125 18.015625 12.136719 17.371094 C 12.183594 17.085938 12.3125 16.777344 12.464844 16.53125 C 12.886719 15.84375 13.578125 15.609375 14.316406 15.441406 C 14.207031 15.246094 14.105469 15.039062 14.054688 14.820312 C 13.925781 14.246094 14.066406 13.589844 14.402344 13.109375 C 14.847656 12.46875 15.488281 12.160156 16.234375 12.027344 Z M 16.234375 12.027344 " fill-opacity="1" fill-rule="nonzero"/><path fill="#1e5443" d="M 6.539062 31.546875 L 12 36.933594 C 10.578125 38.539062 8.832031 39.902344 7.535156 41.605469 C 7.164062 41.488281 6.78125 41.125 6.480469 40.882812 C 5.71875 40.210938 5.207031 39.578125 4.828125 38.625 L 7.242188 38.617188 C 7.605469 38.617188 8.007812 38.652344 8.363281 38.59375 C 8.5 38.574219 8.601562 38.515625 8.707031 38.429688 C 8.875 38.285156 8.964844 38.128906 8.96875 37.90625 C 8.972656 37.6875 8.890625 37.46875 8.726562 37.320312 C 8.640625 37.242188 8.503906 37.179688 8.390625 37.164062 C 8.03125 37.113281 7.597656 37.164062 7.230469 37.164062 L 4.472656 37.179688 C 4.332031 36.933594 4.34375 36.535156 4.34375 36.257812 C 4.34375 34.824219 4.765625 33.585938 5.667969 32.464844 C 5.929688 32.140625 6.242188 31.84375 6.539062 31.546875 Z M 48.996094 31.546875 L 43.535156 36.933594 C 44.953125 38.539062 46.699219 39.902344 48 41.605469 C 48.371094 41.488281 48.753906 41.125 49.050781 40.882812 C 49.816406 40.210938 50.328125 39.578125 50.707031 38.625 L 48.292969 38.617188 C 47.929688 38.617188 47.527344 38.652344 47.167969 38.59375 C 47.03125 38.574219 46.933594 38.515625 46.828125 38.429688 C 46.660156 38.285156 46.570312 38.128906 46.566406 37.90625 C 46.5625 37.6875 46.644531 37.46875 46.808594 37.320312 C 46.894531 37.242188 47.027344 37.179688 47.144531 37.164062 C 47.503906 37.113281 47.9375 37.164062 48.300781 37.164062 L 51.0625 37.179688 C 51.203125 36.933594 51.1875 36.535156 51.1875 36.257812 C 51.191406 34.824219 50.765625 33.585938 49.867188 32.464844 C 49.601562 32.140625 49.289062 31.84375 48.996094 31.546875 Z M 42.484375 37.933594 L 37.128906 43.316406 C 37.617188 44.199219 37.910156 44.882812 37.996094 45.898438 C 38.414062 45.839844 38.808594 45.777344 39.230469 45.820312 C 40.164062 45.914062 41.125 46.386719 41.710938 47.125 C 42.402344 47.992188 42.59375 48.925781 42.464844 50.011719 C 42.8125 50.003906 43.164062 49.964844 43.5 49.886719 C 44.839844 49.578125 45.855469 48.742188 46.578125 47.597656 C 46.910156 46.984375 47.128906 46.429688 47.269531 45.746094 C 45.761719 45.65625 44.203125 45.875 42.703125 45.714844 C 42.511719 45.59375 42.347656 45.441406 42.304688 45.207031 C 42.246094 44.871094 42.285156 44.460938 42.285156 44.121094 C 42.285156 43.667969 42.238281 43.152344 42.300781 42.707031 C 42.316406 42.59375 42.363281 42.488281 42.4375 42.402344 C 42.5625 42.253906 42.707031 42.179688 42.902344 42.175781 C 43.160156 42.167969 43.339844 42.226562 43.523438 42.414062 C 43.589844 42.480469 43.660156 42.570312 43.679688 42.667969 C 43.71875 42.835938 43.695312 43.054688 43.695312 43.230469 L 43.6875 44.402344 L 47.304688 44.378906 C 47.179688 43.621094 47.015625 42.851562 46.636719 42.175781 C 46.304688 41.585938 45.738281 41.113281 45.265625 40.636719 Z M 35.699219 43.613281 C 35.085938 43.53125 34.402344 43.585938 33.785156 43.585938 L 29.855469 43.585938 L 29.84375 53.523438 L 30.300781 53.066406 L 34.484375 48.917969 C 35.011719 48.386719 35.648438 47.847656 36.097656 47.257812 C 36.46875 46.769531 36.585938 46.121094 36.503906 45.523438 C 36.433594 45.023438 36.082031 43.914062 35.699219 43.613281 Z M 38.949219 47.203125 C 38.421875 47.230469 38.054688 47.339844 37.628906 47.671875 C 37.128906 48.066406 36.820312 48.6875 36.761719 49.3125 C 36.710938 49.878906 36.921875 50.511719 37.289062 50.945312 C 37.722656 51.453125 38.191406 51.675781 38.855469 51.722656 C 39.324219 51.707031 39.800781 51.539062 40.179688 51.253906 C 40.679688 50.875 41.042969 50.261719 41.117188 49.640625 C 41.1875 49.070312 40.992188 48.441406 40.628906 48 C 40.207031 47.484375 39.59375 47.253906 38.949219 47.203125 Z M 35.40625 50.015625 C 34.898438 50.421875 34.453125 50.96875 33.992188 51.429688 L 31.261719 54.140625 C 31.433594 54.335938 31.699219 54.496094 31.914062 54.640625 C 33.429688 55.667969 35.121094 55.871094 36.890625 55.519531 L 37.550781 55.328125 C 38.898438 54.855469 40.214844 53.796875 40.835938 52.5 C 40.050781 52.847656 39.269531 53.140625 38.398438 53.03125 L 38.308594 53.019531 C 37.890625 52.96875 37.5 52.867188 37.136719 52.648438 C 36.121094 52.03125 35.683594 51.132812 35.40625 50.015625 Z M 19.832031 43.613281 C 20.445312 43.53125 21.128906 43.585938 21.75 43.585938 L 25.679688 43.585938 L 25.6875 53.523438 L 25.230469 53.066406 L 21.046875 48.917969 C 20.523438 48.386719 19.882812 47.847656 19.433594 47.257812 C 19.0625 46.769531 18.945312 46.121094 19.03125 45.523438 C 19.101562 45.023438 19.449219 43.914062 19.832031 43.613281 Z M 20.125 50.015625 C 20.632812 50.421875 21.078125 50.96875 21.539062 51.429688 L 24.273438 54.140625 C 24.101562 54.335938 23.835938 54.496094 23.621094 54.640625 C 22.101562 55.667969 20.414062 55.871094 18.644531 55.519531 L 17.980469 55.328125 C 16.632812 54.855469 15.316406 53.796875 14.699219 52.5 C 15.484375 52.847656 16.261719 53.140625 17.136719 53.03125 L 17.226562 53.019531 C 17.640625 52.96875 18.035156 52.867188 18.398438 52.648438 C 19.410156 52.03125 19.847656 51.132812 20.125 50.015625 Z M 16.582031 47.203125 C 17.109375 47.230469 17.480469 47.339844 17.90625 47.671875 C 18.402344 48.066406 18.710938 48.6875 18.769531 49.3125 C 18.820312 49.878906 18.609375 50.511719 18.242188 50.945312 C 17.8125 51.453125 17.339844 51.675781 16.679688 51.722656 C 16.207031 51.707031 15.730469 51.539062 15.355469 51.253906 C 14.855469 50.875 14.492188 50.261719 14.417969 49.640625 C 14.347656 49.070312 14.542969 48.441406 14.90625 48 C 15.328125 47.484375 15.9375 47.253906 16.582031 47.203125 Z M 13.050781 37.933594 L 18.402344 43.316406 C 17.917969 44.199219 17.625 44.882812 17.539062 45.898438 C 17.121094 45.839844 16.726562 45.777344 16.300781 45.820312 C 15.371094 45.914062 14.40625 46.386719 13.820312 47.125 C 13.128906 47.992188 12.941406 48.925781 13.066406 50.011719 C 12.722656 50.003906 12.367188 49.964844 12.03125 49.886719 C 10.695312 49.578125 9.679688 48.742188 8.957031 47.597656 C 8.625 46.984375 8.402344 46.429688 8.261719 45.746094 C 9.769531 45.65625 11.332031 45.875 12.828125 45.714844 C 13.019531 45.59375 13.1875 45.441406 13.230469 45.207031 C 13.285156 44.871094 13.246094 44.460938 13.246094 44.121094 C 13.25 43.667969 13.292969 43.152344 13.234375 42.707031 C 13.21875 42.59375 13.167969 42.488281 13.097656 42.402344 C 12.972656 42.253906 12.824219 42.179688 12.628906 42.175781 C 12.371094 42.167969 12.195312 42.226562 12.011719 42.414062 C 11.945312 42.480469 11.875 42.570312 11.851562 42.667969 C 11.816406 42.835938 11.839844 43.054688 11.839844 43.230469 L 11.84375 44.402344 L 8.226562 44.378906 C 8.351562 43.621094 8.519531 42.851562 8.898438 42.175781 C 9.226562 41.585938 9.792969 41.113281 10.265625 40.636719 Z M 13.050781 37.933594 " fill-opacity="1" fill-rule="nonzero"/><g clip-path="url(#bc369df6b4)"><path fill="#545454" d="M 28.363281 62.488281 C 29.453125 62.757812 30.261719 63.742188 30.261719 64.914062 C 30.261719 66.289062 29.144531 67.40625 27.765625 67.40625 C 26.390625 67.40625 25.273438 66.289062 25.273438 64.914062 C 25.273438 63.742188 26.078125 62.757812 27.167969 62.488281 L 27.179688 10.59375 L 26.140625 9.507812 C 25.039062 8.542969 23.601562 8.097656 22.144531 8.21875 C 20.367188 8.363281 19.246094 9.285156 18.121094 10.59375 C 17.714844 10.617188 17.28125 10.527344 16.871094 10.519531 C 14.886719 10.492188 13.183594 11.644531 12.34375 13.425781 C 12.207031 13.71875 12.101562 14.023438 11.992188 14.328125 C 11.96875 14.398438 11.921875 14.585938 11.882812 14.632812 C 11.871094 14.644531 11.597656 14.683594 11.5625 14.691406 L 10.742188 14.882812 C 9.914062 15.113281 9.101562 15.511719 8.492188 16.125 C 7.652344 16.960938 7.03125 18.09375 6.832031 19.265625 C 6.742188 19.808594 6.75 20.355469 6.742188 20.902344 L 6.152344 21.265625 C 4.917969 22.101562 4.007812 23.429688 3.730469 24.898438 C 3.4375 26.460938 3.75 28.175781 4.640625 29.496094 C 4.890625 29.863281 5.234375 30.148438 5.484375 30.519531 C 5.246094 30.917969 4.886719 31.226562 4.578125 31.566406 C 4.277344 31.898438 4.03125 32.269531 3.820312 32.664062 C 2.835938 34.472656 2.613281 36.492188 3.207031 38.46875 C 3.828125 40.542969 5.226562 42.003906 7.101562 43.015625 C 6.820312 44.132812 6.707031 45.269531 6.933594 46.410156 C 7.378906 48.628906 9.167969 50.585938 11.351562 51.1875 C 11.671875 51.273438 12.003906 51.339844 12.335938 51.386719 C 12.371094 51.394531 12.679688 51.425781 12.6875 51.4375 C 12.699219 51.445312 12.753906 51.65625 12.761719 51.675781 L 12.976562 52.375 C 13.472656 53.757812 14.628906 54.976562 15.839844 55.773438 C 18.175781 57.3125 21.226562 57.511719 23.714844 56.21875 C 23.996094 56.070312 24.253906 55.921875 24.507812 55.734375 C 24.75 55.558594 25.042969 55.261719 25.335938 55.203125 C 25.4375 55.246094 25.535156 55.269531 25.609375 55.351562 C 25.796875 55.570312 25.71875 56.046875 25.710938 56.316406 C 25.339844 56.527344 25.03125 56.828125 24.652344 57.039062 C 24.214844 57.289062 23.714844 57.445312 23.292969 57.71875 C 23.085938 58.019531 23.171875 58.871094 23.171875 59.242188 L 23.171875 61.652344 C 23.171875 62.054688 23.195312 62.472656 23.167969 62.871094 C 23.15625 63.039062 23.117188 63.128906 22.984375 63.238281 C 22.859375 63.339844 22.703125 63.382812 22.542969 63.355469 C 22.394531 63.328125 22.230469 63.238281 22.15625 63.097656 C 22.03125 62.859375 22.085938 62.347656 22.085938 62.070312 C 22.085938 61.535156 22.191406 58.378906 21.996094 58.097656 C 21.945312 58.027344 21.65625 58.101562 21.5625 58.117188 C 20.839844 58.226562 20.066406 58.273438 19.339844 58.183594 C 18.347656 58.058594 17.414062 57.839844 16.492188 57.449219 C 14.183594 56.460938 12.625 54.921875 11.695312 52.59375 C 8.1875 51.929688 5.710938 48.921875 5.535156 45.40625 C 5.523438 45.207031 5.640625 43.636719 5.632812 43.621094 C 5.601562 43.558594 5.246094 43.351562 5.167969 43.292969 C 4.515625 42.796875 3.929688 42.257812 3.421875 41.613281 C 2.054688 39.867188 1.371094 37.449219 1.65625 35.242188 C 1.832031 33.898438 2.277344 32.617188 3.035156 31.484375 C 3.269531 31.132812 3.554688 30.808594 3.824219 30.480469 C 3.324219 29.769531 2.9375 29.050781 2.675781 28.21875 C 1.886719 25.746094 2.492188 23.066406 4.277344 21.1875 C 4.460938 20.996094 4.644531 20.804688 4.84375 20.636719 C 4.96875 20.535156 5.445312 20.261719 5.503906 20.152344 C 5.527344 20.113281 5.515625 19.855469 5.519531 19.789062 C 5.539062 19.476562 5.578125 19.167969 5.636719 18.859375 C 5.765625 18.195312 5.984375 17.554688 6.300781 16.953125 C 6.9375 15.742188 8.03125 14.679688 9.257812 14.082031 C 9.824219 13.804688 10.429688 13.617188 11.03125 13.433594 C 11.273438 12.65625 11.738281 11.886719 12.292969 11.289062 C 13.40625 10.089844 14.722656 9.394531 16.367188 9.269531 C 16.648438 9.246094 16.941406 9.257812 17.226562 9.261719 C 17.304688 9.261719 17.480469 9.289062 17.554688 9.265625 C 17.667969 9.234375 18.027344 8.839844 18.144531 8.734375 C 19.433594 7.570312 20.832031 7.023438 22.574219 6.976562 C 23.976562 6.9375 25.359375 7.355469 26.496094 8.183594 C 26.945312 8.507812 27.335938 8.90625 27.734375 9.285156 L 27.765625 9.253906 L 27.765625 9.25 L 27.769531 9.25 L 27.769531 9.253906 L 27.796875 9.285156 C 28.195312 8.90625 28.589844 8.507812 29.035156 8.183594 C 30.171875 7.355469 31.558594 6.9375 32.960938 6.976562 C 34.699219 7.023438 36.097656 7.570312 37.386719 8.734375 C 37.503906 8.839844 37.863281 9.234375 37.980469 9.265625 C 38.050781 9.285156 38.226562 9.261719 38.308594 9.261719 C 38.59375 9.257812 38.882812 9.246094 39.167969 9.269531 C 40.808594 9.394531 42.128906 10.089844 43.242188 11.289062 C 43.792969 11.886719 44.257812 12.65625 44.503906 13.433594 C 45.101562 13.617188 45.710938 13.804688 46.273438 14.082031 C 47.5 14.679688 48.597656 15.742188 49.230469 16.953125 C 49.546875 17.554688 49.765625 18.195312 49.894531 18.859375 C 49.957031 19.167969 49.996094 19.476562 50.015625 19.789062 C 50.019531 19.855469 50.003906 20.113281 50.027344 20.152344 C 50.085938 20.261719 50.5625 20.535156 50.6875 20.636719 C 50.890625 20.804688 51.074219 20.996094 51.253906 21.1875 C 53.039062 23.066406 53.644531 25.746094 52.859375 28.21875 C 52.59375 29.050781 52.207031 29.769531 51.707031 30.480469 C 51.976562 30.808594 52.261719 31.132812 52.5 31.484375 C 53.253906 32.617188 53.699219 33.898438 53.875 35.242188 C 54.164062 37.449219 53.476562 39.867188 52.109375 41.613281 C 51.601562 42.257812 51.015625 42.796875 50.363281 43.292969 C 50.289062 43.351562 49.933594 43.558594 49.898438 43.621094 C 49.890625 43.636719 50.007812 45.207031 49.996094 45.40625 C 49.820312 48.921875 47.34375 51.929688 43.839844 52.59375 C 42.910156 54.921875 41.351562 56.460938 39.039062 57.449219 C 38.117188 57.839844 37.183594 58.058594 36.191406 58.183594 C 35.464844 58.273438 34.691406 58.226562 33.96875 58.117188 C 33.875 58.101562 33.585938 58.027344 33.539062 58.097656 C 33.34375 58.378906 33.445312 61.535156 33.445312 62.070312 C 33.445312 62.347656 33.5 62.859375 33.375 63.097656 C 33.300781 63.238281 33.140625 63.328125 32.988281 63.355469 C 32.828125 63.382812 32.671875 63.339844 32.546875 63.238281 C 32.417969 63.128906 32.375 63.039062 32.363281 62.871094 C 32.335938 62.472656 32.359375 62.054688 32.359375 61.652344 L 32.359375 59.242188 C 32.359375 58.871094 32.445312 58.019531 32.238281 57.71875 C 31.816406 57.445312 31.320312 57.289062 30.878906 57.039062 C 30.503906 56.828125 30.191406 56.527344 29.824219 56.316406 C 29.8125 56.046875 29.734375 55.570312 29.921875 55.351562 C 29.996094 55.269531 30.09375 55.246094 30.195312 55.203125 C 30.488281 55.261719 30.785156 55.558594 31.023438 55.734375 C 31.277344 55.921875 31.539062 56.070312 31.816406 56.21875 C 34.304688 57.511719 37.359375 57.3125 39.695312 55.773438 C 40.90625 54.976562 42.058594 53.757812 42.554688 52.375 L 42.773438 51.675781 C 42.777344 51.65625 42.835938 51.445312 42.84375 51.4375 C 42.855469 51.425781 43.160156 51.394531 43.199219 51.386719 C 43.527344 51.335938 43.859375 51.273438 44.179688 51.1875 C 46.363281 50.589844 48.15625 48.628906 48.597656 46.410156 C 48.824219 45.269531 48.710938 44.132812 48.429688 43.015625 C 50.308594 42.003906 51.707031 40.542969 52.324219 38.46875 C 52.917969 36.492188 52.699219 34.472656 51.714844 32.664062 C 51.5 32.269531 51.253906 31.898438 50.957031 31.566406 C 50.644531 31.226562 50.285156 30.917969 50.046875 30.519531 C 50.300781 30.148438 50.644531 29.863281 50.890625 29.496094 C 51.78125 28.175781 52.09375 26.460938 51.800781 24.898438 C 51.527344 23.429688 50.613281 22.101562 49.378906 21.265625 L 48.789062 20.902344 C 48.785156 20.355469 48.789062 19.804688 48.699219 19.265625 C 48.503906 18.09375 47.878906 16.960938 47.042969 16.125 C 46.429688 15.511719 45.621094 15.113281 44.792969 14.882812 L 43.96875 14.691406 C 43.933594 14.683594 43.660156 14.644531 43.648438 14.632812 C 43.609375 14.585938 43.5625 14.398438 43.539062 14.328125 C 43.429688 14.023438 43.324219 13.71875 43.1875 13.425781 C 42.351562 11.644531 40.644531 10.492188 38.664062 10.519531 C 38.25 10.527344 37.816406 10.617188 37.410156 10.59375 C 36.289062 9.285156 35.164062 8.363281 33.386719 8.21875 C 31.933594 8.097656 30.492188 8.542969 29.394531 9.507812 L 28.355469 10.59375 Z M 27.765625 63.476562 C 28.558594 63.476562 29.203125 64.121094 29.203125 64.914062 C 29.203125 65.703125 28.558594 66.347656 27.765625 66.347656 C 26.972656 66.347656 26.332031 65.703125 26.332031 64.914062 C 26.332031 64.121094 26.972656 63.476562 27.765625 63.476562 Z M 27.765625 63.476562 " fill-opacity="1" fill-rule="evenodd"/></g><g transform="matrix(1, 0, 0, 1, 54, 23)"><g clip-path="url(#636db8e918)"><g fill="#2c7c63" fill-opacity="1"><g transform="translate(1.094815, 21.422468)"><g><path d="M 5.4375 -15.796875 L 8.421875 -4.375 L 11.390625 -15.796875 L 15.5625 -15.796875 L 15.5625 0 L 12.359375 0 L 12.359375 -4.28125 L 12.65625 -10.859375 L 9.5 0 L 7.328125 0 L 4.171875 -10.859375 L 4.453125 -4.28125 L 4.453125 0 L 1.265625 0 L 1.265625 -15.796875 Z M 5.4375 -15.796875 "/></g></g></g><g fill="#2c7c63" fill-opacity="1"><g transform="translate(17.935997, 21.422468)"><g><path d="M 4.59375 0 L 1.40625 0 L 1.40625 -15.796875 L 4.59375 -15.796875 Z M 4.59375 0 "/></g></g></g><g fill="#2c7c63" fill-opacity="1"><g transform="translate(23.943734, 21.422468)"><g><path d="M 12.3125 0 L 9.125 0 L 4.453125 -10.359375 L 4.453125 0 L 1.265625 0 L 1.265625 -15.796875 L 4.453125 -15.796875 L 9.140625 -5.421875 L 9.140625 -15.796875 L 12.3125 -15.796875 Z M 12.3125 0 "/></g></g></g><g fill="#2c7c63" fill-opacity="1"><g transform="translate(37.542473, 21.422468)"><g><path d="M 1.265625 0 L 1.265625 -15.796875 L 5.453125 -15.796875 C 7.296875 -15.796875 8.765625 -15.207031 9.859375 -14.03125 C 10.953125 -12.863281 11.507812 -11.257812 11.53125 -9.21875 L 11.53125 -6.65625 C 11.53125 -4.582031 10.984375 -2.953125 9.890625 -1.765625 C 8.796875 -0.585938 7.285156 0 5.359375 0 Z M 4.453125 -13.140625 L 4.453125 -2.640625 L 5.40625 -2.640625 C 6.476562 -2.640625 7.226562 -2.921875 7.65625 -3.484375 C 8.09375 -4.046875 8.320312 -5.015625 8.34375 -6.390625 L 8.34375 -9.140625 C 8.34375 -10.609375 8.132812 -11.632812 7.71875 -12.21875 C 7.3125 -12.800781 6.613281 -13.109375 5.625 -13.140625 Z M 4.453125 -13.140625 "/></g></g></g><g fill="#1e5443" fill-opacity="1"><g transform="translate(50.090668, 21.422468)"><g/></g></g><g fill="#1e5443" fill-opacity="1"><g transform="translate(55.209173, 21.422468)"><g><path d="M 7.9375 -4.140625 C 7.9375 -4.785156 7.769531 -5.269531 7.4375 -5.59375 C 7.113281 -5.925781 6.519531 -6.269531 5.65625 -6.625 C 4.070312 -7.226562 2.929688 -7.929688 2.234375 -8.734375 C 1.535156 -9.546875 1.1875 -10.5 1.1875 -11.59375 C 1.1875 -12.925781 1.660156 -13.992188 2.609375 -14.796875 C 3.554688 -15.609375 4.753906 -16.015625 6.203125 -16.015625 C 7.171875 -16.015625 8.035156 -15.804688 8.796875 -15.390625 C 9.554688 -14.984375 10.140625 -14.40625 10.546875 -13.65625 C 10.953125 -12.914062 11.15625 -12.070312 11.15625 -11.125 L 7.984375 -11.125 C 7.984375 -11.863281 7.828125 -12.425781 7.515625 -12.8125 C 7.203125 -13.207031 6.75 -13.40625 6.15625 -13.40625 C 5.59375 -13.40625 5.15625 -13.238281 4.84375 -12.90625 C 4.539062 -12.570312 4.390625 -12.128906 4.390625 -11.578125 C 4.390625 -11.140625 4.5625 -10.742188 4.90625 -10.390625 C 5.25 -10.046875 5.863281 -9.6875 6.75 -9.3125 C 8.289062 -8.75 9.410156 -8.0625 10.109375 -7.25 C 10.804688 -6.445312 11.15625 -5.421875 11.15625 -4.171875 C 11.15625 -2.796875 10.71875 -1.71875 9.84375 -0.9375 C 8.96875 -0.164062 7.773438 0.21875 6.265625 0.21875 C 5.242188 0.21875 4.3125 0.0078125 3.46875 -0.40625 C 2.632812 -0.832031 1.976562 -1.4375 1.5 -2.21875 C 1.03125 -3 0.796875 -3.921875 0.796875 -4.984375 L 4 -4.984375 C 4 -4.066406 4.175781 -3.398438 4.53125 -2.984375 C 4.882812 -2.578125 5.460938 -2.375 6.265625 -2.375 C 7.378906 -2.375 7.9375 -2.960938 7.9375 -4.140625 Z M 7.9375 -4.140625 "/></g></g></g><g fill="#1e5443" fill-opacity="1"><g transform="translate(67.202958, 21.422468)"><g><path d="M 6.03125 -8.703125 L 8.40625 -15.796875 L 11.875 -15.796875 L 7.65625 -5.734375 L 7.65625 0 L 4.421875 0 L 4.421875 -5.734375 L 0.171875 -15.796875 L 3.640625 -15.796875 Z M 6.03125 -8.703125 "/></g></g></g><g fill="#1e5443" fill-opacity="1"><g transform="translate(79.077419, 21.422468)"><g><path d="M 7.9375 -4.140625 C 7.9375 -4.785156 7.769531 -5.269531 7.4375 -5.59375 C 7.113281 -5.925781 6.519531 -6.269531 5.65625 -6.625 C 4.070312 -7.226562 2.929688 -7.929688 2.234375 -8.734375 C 1.535156 -9.546875 1.1875 -10.5 1.1875 -11.59375 C 1.1875 -12.925781 1.660156 -13.992188 2.609375 -14.796875 C 3.554688 -15.609375 4.753906 -16.015625 6.203125 -16.015625 C 7.171875 -16.015625 8.035156 -15.804688 8.796875 -15.390625 C 9.554688 -14.984375 10.140625 -14.40625 10.546875 -13.65625 C 10.953125 -12.914062 11.15625 -12.070312 11.15625 -11.125 L 7.984375 -11.125 C 7.984375 -11.863281 7.828125 -12.425781 7.515625 -12.8125 C 7.203125 -13.207031 6.75 -13.40625 6.15625 -13.40625 C 5.59375 -13.40625 5.15625 -13.238281 4.84375 -12.90625 C 4.539062 -12.570312 4.390625 -12.128906 4.390625 -11.578125 C 4.390625 -11.140625 4.5625 -10.742188 4.90625 -10.390625 C 5.25 -10.046875 5.863281 -9.6875 6.75 -9.3125 C 8.289062 -8.75 9.410156 -8.0625 10.109375 -7.25 C 10.804688 -6.445312 11.15625 -5.421875 11.15625 -4.171875 C 11.15625 -2.796875 10.71875 -1.71875 9.84375 -0.9375 C 8.96875 -0.164062 7.773438 0.21875 6.265625 0.21875 C 5.242188 0.21875 4.3125 0.0078125 3.46875 -0.40625 C 2.632812 -0.832031 1.976562 -1.4375 1.5 -2.21875 C 1.03125 -3 0.796875 -3.921875 0.796875 -4.984375 L 4 -4.984375 C 4 -4.066406 4.175781 -3.398438 4.53125 -2.984375 C 4.882812 -2.578125 5.460938 -2.375 6.265625 -2.375 C 7.378906 -2.375 7.9375 -2.960938 7.9375 -4.140625 Z M 7.9375 -4.140625 "/></g></g></g><g fill="#1e5443" fill-opacity="1"><g transform="translate(91.071203, 21.422468)"><g><path d="M 11.5 -13.140625 L 7.59375 -13.140625 L 7.59375 0 L 4.390625 0 L 4.390625 -13.140625 L 0.546875 -13.140625 L 0.546875 -15.796875 L 11.5 -15.796875 Z M 11.5 -13.140625 "/></g></g></g><g fill="#1e5443" fill-opacity="1"><g transform="translate(103.130054, 21.422468)"><g><path d="M 9.421875 -6.828125 L 4.453125 -6.828125 L 4.453125 -2.640625 L 10.34375 -2.640625 L 10.34375 0 L 1.265625 0 L 1.265625 -15.796875 L 10.3125 -15.796875 L 10.3125 -13.140625 L 4.453125 -13.140625 L 4.453125 -9.40625 L 9.421875 -9.40625 Z M 9.421875 -6.828125 "/></g></g></g><g fill="#1e5443" fill-opacity="1"><g transform="translate(114.028565, 21.422468)"><g><path d="M 5.4375 -15.796875 L 8.421875 -4.375 L 11.390625 -15.796875 L 15.5625 -15.796875 L 15.5625 0 L 12.359375 0 L 12.359375 -4.28125 L 12.65625 -10.859375 L 9.5 0 L 7.328125 0 L 4.171875 -10.859375 L 4.453125 -4.28125 L 4.453125 0 L 1.265625 0 L 1.265625 -15.796875 Z M 5.4375 -15.796875 "/></g></g></g></g></g></svg>