<svg xmlns="http://www.w3.org/2000/svg" xmlns:xlink="http://www.w3.org/1999/xlink" width="50" zoomAndPan="magnify" viewBox="0 0 37.5 37.499999" height="50" preserveAspectRatio="xMidYMid meet" version="1.0"><defs><clipPath id="8b9468446a"><path d="M 1.371094 1.371094 L 35.414062 1.371094 L 35.414062 35.414062 L 1.371094 35.414062 Z M 1.371094 1.371094 " clip-rule="nonzero"/></clipPath></defs><g clip-path="url(#8b9468446a)"><path fill="#f9f9f9" d="M 18.503906 1.371094 C 9.058594 1.371094 1.371094 9.058594 1.371094 18.503906 C 1.371094 27.945312 9.058594 35.636719 18.503906 35.636719 C 27.945312 35.636719 35.636719 27.945312 35.636719 18.503906 C 35.636719 9.058594 27.945312 1.371094 18.503906 1.371094 Z M 18.503906 4.484375 C 26.261719 4.484375 32.519531 10.742188 32.519531 18.503906 C 32.519531 26.261719 26.261719 32.519531 18.503906 32.519531 C 10.742188 32.519531 4.484375 26.261719 4.484375 18.503906 C 4.484375 10.742188 10.742188 4.484375 18.503906 4.484375 Z M 16.945312 9.15625 L 16.945312 11.363281 C 15.222656 12.054688 13.828125 13.429688 13.828125 15.386719 C 13.828125 17.949219 15.941406 20.058594 18.503906 20.058594 C 19.382812 20.058594 20.058594 20.738281 20.058594 21.617188 C 20.058594 22.496094 19.382812 23.175781 18.503906 23.175781 C 17.621094 23.175781 16.945312 22.496094 16.945312 21.617188 L 13.828125 21.617188 C 13.828125 23.574219 15.222656 24.953125 16.945312 25.640625 L 16.945312 27.847656 L 20.058594 27.847656 L 20.058594 25.640625 C 21.785156 24.953125 23.175781 23.574219 23.175781 21.617188 C 23.175781 19.054688 21.0625 16.945312 18.503906 16.945312 C 17.621094 16.945312 16.945312 16.265625 16.945312 15.386719 C 16.945312 14.507812 17.621094 13.828125 18.503906 13.828125 C 19.382812 13.828125 20.058594 14.507812 20.058594 15.386719 L 23.175781 15.386719 C 23.175781 13.429688 21.785156 12.054688 20.058594 11.363281 L 20.058594 9.15625 Z M 16.945312 9.15625 " fill-opacity="1" fill-rule="nonzero"/></g></svg>