<svg xmlns="http://www.w3.org/2000/svg" xmlns:xlink="http://www.w3.org/1999/xlink" width="50" zoomAndPan="magnify" viewBox="0 0 37.5 37.499999" height="50" preserveAspectRatio="xMidYMid meet" version="1.0"><defs><clipPath id="ed1cfa3abe"><path d="M 5.351562 5 L 29 5 L 29 35.082031 L 5.351562 35.082031 Z M 5.351562 5 " clip-rule="nonzero"/></clipPath><clipPath id="079759e937"><path d="M 8 1.777344 L 31.996094 1.777344 L 31.996094 32 L 8 32 Z M 8 1.777344 " clip-rule="nonzero"/></clipPath></defs><g clip-path="url(#ed1cfa3abe)"><path fill="#f9f9f9" d="M 5.363281 5.613281 L 5.363281 35.222656 L 28.273438 35.222656 L 28.273438 10.671875 L 24.289062 10.671875 C 23.941406 10.671875 23.664062 10.394531 23.664062 10.050781 L 23.664062 5.613281 Z M 19.15625 26.402344 L 8.847656 26.402344 C 8.503906 26.402344 8.222656 26.121094 8.222656 25.777344 C 8.222656 25.433594 8.503906 25.152344 8.847656 25.152344 L 19.15625 25.152344 C 19.5 25.152344 19.777344 25.433594 19.777344 25.777344 C 19.777344 26.121094 19.5 26.402344 19.15625 26.402344 Z M 24.78125 22.367188 L 8.847656 22.367188 C 8.503906 22.367188 8.222656 22.089844 8.222656 21.746094 C 8.222656 21.398438 8.503906 21.121094 8.847656 21.121094 L 24.78125 21.121094 C 25.125 21.121094 25.40625 21.398438 25.40625 21.746094 C 25.40625 22.089844 25.125 22.367188 24.78125 22.367188 Z M 24.78125 18.328125 L 8.847656 18.328125 C 8.503906 18.328125 8.222656 18.046875 8.222656 17.703125 C 8.222656 17.359375 8.503906 17.078125 8.847656 17.078125 L 24.78125 17.078125 C 25.125 17.078125 25.40625 17.359375 25.40625 17.703125 C 25.40625 18.046875 25.125 18.328125 24.78125 18.328125 Z M 24.78125 13.039062 C 25.125 13.039062 25.40625 13.316406 25.40625 13.664062 C 25.40625 14.007812 25.125 14.285156 24.78125 14.285156 L 8.847656 14.285156 C 8.503906 14.285156 8.222656 14.007812 8.222656 13.664062 C 8.222656 13.316406 8.503906 13.039062 8.847656 13.039062 Z M 24.78125 13.039062 " fill-opacity="1" fill-rule="nonzero"/></g><path fill="#f9f9f9" d="M 27.484375 9.425781 L 24.914062 6.597656 L 24.914062 9.425781 Z M 27.484375 9.425781 " fill-opacity="1" fill-rule="nonzero"/><g clip-path="url(#079759e937)"><path fill="#f9f9f9" d="M 8.722656 1.777344 L 8.722656 4.367188 L 24.289062 4.367188 C 24.296875 4.367188 24.296875 4.367188 24.304688 4.367188 C 24.347656 4.367188 24.386719 4.382812 24.429688 4.390625 C 24.46875 4.398438 24.511719 4.398438 24.542969 4.414062 C 24.566406 4.429688 24.59375 4.449219 24.625 4.464844 C 24.667969 4.488281 24.707031 4.511719 24.738281 4.554688 C 24.738281 4.554688 24.75 4.5625 24.75 4.5625 L 29.355469 9.621094 C 29.378906 9.644531 29.390625 9.671875 29.40625 9.703125 C 29.429688 9.746094 29.453125 9.777344 29.480469 9.820312 C 29.496094 9.859375 29.503906 9.910156 29.503906 9.957031 C 29.511719 9.992188 29.519531 10.015625 29.519531 10.050781 L 29.519531 31.386719 L 31.640625 31.386719 L 31.640625 1.777344 Z M 8.722656 1.777344 " fill-opacity="1" fill-rule="nonzero"/></g></svg>