<svg xmlns="http://www.w3.org/2000/svg" xmlns:xlink="http://www.w3.org/1999/xlink" width="50" zoomAndPan="magnify" viewBox="0 0 37.5 37.499999" height="50" preserveAspectRatio="xMidYMid meet" version="1.0"><defs><clipPath id="f3a8581dd0"><path d="M 1.023438 4.460938 L 35.808594 4.460938 L 35.808594 33.328125 L 1.023438 33.328125 Z M 1.023438 4.460938 " clip-rule="nonzero"/></clipPath></defs><g clip-path="url(#f3a8581dd0)"><path fill="#f9f9f9" d="M 18.949219 4.601562 C 16.160156 4.507812 13.34375 5.269531 10.914062 6.890625 C 8.183594 8.714844 6.273438 11.410156 5.394531 14.425781 C 5.152344 14.394531 4.859375 14.40625 4.515625 14.503906 C 3.226562 14.871094 2.257812 15.925781 1.820312 16.859375 C 1.253906 18.070312 1.015625 19.671875 1.269531 21.328125 C 1.519531 22.976562 2.214844 24.339844 3.085938 25.183594 C 3.960938 26.027344 4.949219 26.300781 5.929688 26.097656 C 7.390625 25.785156 8.113281 25.550781 7.910156 24.191406 L 6.917969 17.59375 C 7.117188 14.027344 8.96875 10.667969 12.058594 8.601562 C 16.195312 5.835938 21.617188 6.015625 25.5625 9.042969 C 28.308594 11.148438 29.902344 14.300781 30.085938 17.609375 L 29.394531 22.222656 C 27.851562 26.449219 24.023438 29.375 19.59375 29.792969 L 16.644531 29.792969 C 15.882812 29.792969 15.269531 30.40625 15.269531 31.164062 L 15.269531 31.890625 C 15.269531 32.648438 15.882812 33.261719 16.644531 33.261719 L 20.363281 33.261719 C 21.121094 33.261719 21.734375 32.648438 21.734375 31.890625 L 21.734375 31.511719 C 25.074219 30.695312 27.988281 28.644531 29.886719 25.78125 L 31.078125 26.097656 C 32.046875 26.347656 33.046875 26.027344 33.921875 25.183594 C 34.792969 24.339844 35.488281 22.980469 35.738281 21.328125 C 35.992188 19.671875 35.746094 18.074219 35.1875 16.859375 C 34.625 15.644531 33.789062 14.871094 32.824219 14.59375 C 32.421875 14.476562 31.984375 14.4375 31.605469 14.425781 C 30.8125 11.699219 29.175781 9.222656 26.816406 7.414062 C 24.496094 5.632812 21.738281 4.691406 18.949219 4.601562 Z M 18.949219 4.601562 " fill-opacity="1" fill-rule="evenodd"/></g><path fill="#f9f9f9" d="M 23.300781 16.464844 C 24.285156 16.464844 25.082031 17.261719 25.085938 18.246094 C 25.082031 19.230469 24.285156 20.027344 23.300781 20.027344 C 22.316406 20.027344 21.519531 19.230469 21.519531 18.246094 C 21.519531 17.261719 22.316406 16.464844 23.300781 16.464844 Z M 18.503906 16.464844 C 19.488281 16.464844 20.285156 17.261719 20.285156 18.246094 C 20.285156 19.230469 19.488281 20.027344 18.503906 20.027344 C 17.515625 20.027344 16.71875 19.230469 16.71875 18.246094 C 16.71875 17.261719 17.515625 16.464844 18.503906 16.464844 Z M 13.707031 16.464844 C 14.6875 16.464844 15.488281 17.261719 15.488281 18.246094 C 15.488281 19.230469 14.6875 20.027344 13.707031 20.027344 C 12.71875 20.027344 11.921875 19.230469 11.921875 18.246094 C 11.921875 17.261719 12.71875 16.464844 13.707031 16.464844 Z M 18.503906 8.808594 C 13.277344 8.808594 9.066406 12.882812 9.066406 18.246094 C 9.066406 20.824219 10.039062 23.101562 11.625 24.769531 L 11.0625 27.296875 C 10.878906 28.128906 11.453125 28.6875 12.199219 28.269531 L 14.664062 26.894531 C 15.835938 27.402344 17.132812 27.683594 18.503906 27.683594 C 23.730469 27.683594 27.941406 23.613281 27.941406 18.246094 C 27.941406 12.882812 23.730469 8.808594 18.503906 8.808594 Z M 18.503906 8.808594 " fill-opacity="1" fill-rule="evenodd"/></svg>