<svg xmlns="http://www.w3.org/2000/svg" xmlns:xlink="http://www.w3.org/1999/xlink" width="50" zoomAndPan="magnify" viewBox="0 0 37.5 37.499999" height="50" preserveAspectRatio="xMidYMid meet" version="1.0"><defs><clipPath id="3ff72935a7"><path d="M 2.074219 2.074219 L 35.378906 2.074219 L 35.378906 35.378906 L 2.074219 35.378906 Z M 2.074219 2.074219 " clip-rule="nonzero"/></clipPath></defs><g clip-path="url(#3ff72935a7)"><path fill="#f9f9f9" d="M 6.59375 7.90625 C 6.59375 7.523438 6.632812 7.144531 6.707031 6.769531 C 6.78125 6.390625 6.890625 6.027344 7.039062 5.671875 C 7.183594 5.320312 7.363281 4.984375 7.578125 4.664062 C 7.789062 4.347656 8.03125 4.050781 8.300781 3.78125 C 8.574219 3.511719 8.867188 3.269531 9.1875 3.054688 C 9.503906 2.84375 9.839844 2.664062 10.195312 2.515625 C 10.546875 2.371094 10.914062 2.257812 11.289062 2.183594 C 11.664062 2.109375 12.042969 2.074219 12.425781 2.074219 C 12.808594 2.074219 13.191406 2.109375 13.566406 2.183594 C 13.941406 2.257812 14.304688 2.371094 14.660156 2.515625 C 15.011719 2.664062 15.347656 2.84375 15.667969 3.054688 C 15.988281 3.269531 16.28125 3.511719 16.550781 3.78125 C 16.824219 4.050781 17.066406 4.347656 17.277344 4.664062 C 17.488281 4.984375 17.667969 5.320312 17.816406 5.671875 C 17.964844 6.027344 18.074219 6.390625 18.148438 6.769531 C 18.222656 7.144531 18.261719 7.523438 18.261719 7.90625 C 18.261719 8.289062 18.222656 8.667969 18.148438 9.042969 C 18.074219 9.417969 17.964844 9.785156 17.816406 10.136719 C 17.667969 10.492188 17.488281 10.828125 17.277344 11.148438 C 17.066406 11.464844 16.824219 11.757812 16.550781 12.03125 C 16.28125 12.300781 15.988281 12.542969 15.667969 12.757812 C 15.347656 12.96875 15.011719 13.148438 14.660156 13.296875 C 14.304688 13.441406 13.941406 13.550781 13.566406 13.628906 C 13.191406 13.703125 12.808594 13.738281 12.425781 13.738281 C 12.042969 13.738281 11.664062 13.703125 11.289062 13.628906 C 10.914062 13.550781 10.546875 13.441406 10.195312 13.296875 C 9.839844 13.148438 9.503906 12.96875 9.1875 12.757812 C 8.867188 12.542969 8.574219 12.300781 8.300781 12.03125 C 8.03125 11.757812 7.789062 11.464844 7.578125 11.148438 C 7.363281 10.828125 7.183594 10.492188 7.039062 10.136719 C 6.890625 9.785156 6.78125 9.417969 6.707031 9.042969 C 6.632812 8.667969 6.59375 8.289062 6.59375 7.90625 Z M 35.296875 32.5625 C 35.296875 27.695312 30.382812 23.75 24.316406 23.75 C 18.253906 23.75 13.335938 27.695312 13.335938 32.5625 C 13.335938 34.386719 18.828125 35.296875 24.316406 35.296875 C 29.808594 35.296875 35.296875 34.386719 35.296875 32.5625 Z M 12.425781 26.441406 C 13.140625 26.441406 13.855469 26.425781 14.558594 26.394531 C 15.511719 25.40625 16.597656 24.597656 17.8125 23.957031 C 19.027344 23.320312 20.308594 22.890625 21.664062 22.664062 C 21.003906 22.414062 20.394531 22.078125 19.832031 21.660156 C 19.269531 21.238281 18.773438 20.75 18.347656 20.191406 C 17.921875 19.632812 17.582031 19.027344 17.324219 18.375 C 17.066406 17.71875 16.90625 17.042969 16.839844 16.34375 C 15.417969 15.8125 13.945312 15.550781 12.425781 15.554688 C 6.707031 15.554688 2.074219 19.273438 2.074219 23.863281 C 2.074219 25.582031 7.25 26.441406 12.425781 26.441406 Z M 24.316406 21.828125 C 24.722656 21.828125 25.125 21.785156 25.523438 21.707031 C 25.921875 21.628906 26.308594 21.511719 26.683594 21.355469 C 27.058594 21.199219 27.417969 21.011719 27.753906 20.785156 C 28.089844 20.558594 28.402344 20.300781 28.691406 20.015625 C 28.976562 19.726562 29.234375 19.414062 29.460938 19.078125 C 29.6875 18.738281 29.875 18.382812 30.03125 18.007812 C 30.1875 17.632812 30.304688 17.246094 30.382812 16.847656 C 30.464844 16.449219 30.503906 16.046875 30.503906 15.640625 C 30.503906 15.234375 30.464844 14.832031 30.382812 14.433594 C 30.304688 14.035156 30.1875 13.648438 30.03125 13.273438 C 29.875 12.898438 29.6875 12.542969 29.460938 12.203125 C 29.234375 11.867188 28.976562 11.554688 28.691406 11.265625 C 28.402344 10.980469 28.089844 10.722656 27.753906 10.5 C 27.417969 10.273438 27.058594 10.082031 26.683594 9.925781 C 26.308594 9.769531 25.921875 9.652344 25.523438 9.574219 C 25.125 9.496094 24.722656 9.457031 24.316406 9.457031 C 23.910156 9.457031 23.507812 9.496094 23.109375 9.574219 C 22.710938 9.652344 22.324219 9.769531 21.949219 9.925781 C 21.574219 10.082031 21.21875 10.273438 20.878906 10.5 C 20.542969 10.722656 20.230469 10.980469 19.945312 11.265625 C 19.65625 11.554688 19.398438 11.867188 19.175781 12.203125 C 18.949219 12.542969 18.757812 12.898438 18.601562 13.273438 C 18.445312 13.648438 18.328125 14.035156 18.25 14.433594 C 18.171875 14.832031 18.132812 15.234375 18.132812 15.640625 C 18.132812 16.046875 18.171875 16.449219 18.25 16.847656 C 18.328125 17.246094 18.445312 17.632812 18.601562 18.007812 C 18.757812 18.382812 18.949219 18.738281 19.175781 19.078125 C 19.398438 19.414062 19.65625 19.726562 19.945312 20.015625 C 20.230469 20.300781 20.542969 20.558594 20.882812 20.785156 C 21.21875 21.011719 21.574219 21.199219 21.949219 21.355469 C 22.324219 21.511719 22.710938 21.628906 23.109375 21.707031 C 23.507812 21.785156 23.910156 21.828125 24.316406 21.828125 Z M 24.316406 21.828125 " fill-opacity="1" fill-rule="nonzero"/></g></svg>