<svg xmlns="http://www.w3.org/2000/svg" xmlns:xlink="http://www.w3.org/1999/xlink" width="50" zoomAndPan="magnify" viewBox="0 0 37.5 37.499999" height="50" preserveAspectRatio="xMidYMid meet" version="1.0"><defs><clipPath id="8c8a2ada42"><path d="M 3.171875 1.105469 L 33.515625 1.105469 L 33.515625 35.890625 L 3.171875 35.890625 Z M 3.171875 1.105469 " clip-rule="nonzero"/></clipPath></defs><g clip-path="url(#8c8a2ada42)"><path fill="#f9f9f9" d="M 24.066406 28.019531 L 24.058594 29.089844 C 24.058594 29.589844 23.648438 29.996094 23.148438 29.992188 L 22.15625 29.988281 C 22.007812 30.472656 21.800781 30.933594 21.535156 31.351562 L 22.269531 32.089844 C 22.621094 32.445312 22.617188 33.023438 22.265625 33.378906 L 21.503906 34.132812 C 21.148438 34.480469 20.570312 34.480469 20.21875 34.125 L 19.429688 33.332031 C 19.015625 33.558594 18.578125 33.726562 18.117188 33.84375 L 18.113281 34.984375 C 18.109375 35.484375 17.699219 35.894531 17.199219 35.890625 L 16.128906 35.886719 C 15.632812 35.886719 15.222656 35.472656 15.226562 34.972656 L 15.230469 33.820312 C 14.777344 33.699219 14.34375 33.523438 13.933594 33.292969 L 13.125 34.09375 C 12.773438 34.445312 12.195312 34.445312 11.839844 34.089844 L 11.089844 33.328125 C 10.734375 32.972656 10.738281 32.394531 11.09375 32.042969 L 11.859375 31.285156 C 11.601562 30.863281 11.402344 30.417969 11.261719 29.941406 L 10.230469 29.9375 C 9.730469 29.9375 9.324219 29.523438 9.328125 29.023438 L 9.332031 27.957031 C 9.335938 27.453125 9.742188 27.046875 10.242188 27.050781 L 11.175781 27.054688 C 11.292969 26.535156 11.484375 26.042969 11.742188 25.574219 L 11.125 24.953125 C 10.773438 24.597656 10.773438 24.019531 11.128906 23.664062 L 11.886719 22.914062 C 12.246094 22.5625 12.820312 22.5625 13.175781 22.917969 L 13.738281 23.488281 C 14.210938 23.195312 14.726562 22.972656 15.277344 22.828125 L 15.28125 22.054688 C 15.28125 21.558594 15.695312 21.148438 16.191406 21.152344 L 17.261719 21.15625 C 17.761719 21.160156 18.167969 21.570312 18.167969 22.070312 L 18.164062 22.832031 C 18.71875 22.976562 19.238281 23.203125 19.710938 23.5 L 20.265625 22.949219 C 20.621094 22.597656 21.199219 22.601562 21.550781 22.953125 L 22.304688 23.714844 C 22.65625 24.070312 22.652344 24.648438 22.300781 25 L 21.699219 25.59375 C 21.957031 26.058594 22.152344 26.566406 22.269531 27.101562 L 23.160156 27.105469 C 23.660156 27.109375 24.070312 27.519531 24.066406 28.019531 Z M 13.085938 7.019531 C 15.222656 7.085938 16.902344 8.871094 16.832031 11.011719 C 16.769531 13.148438 14.980469 14.824219 12.84375 14.761719 C 10.707031 14.691406 9.027344 12.90625 9.09375 10.765625 C 9.160156 8.628906 10.945312 6.949219 13.085938 7.019531 Z M 19.625 28.535156 C 19.617188 30.152344 18.300781 31.457031 16.683594 31.449219 C 15.066406 31.441406 13.761719 30.125 13.769531 28.511719 C 13.773438 26.890625 15.09375 25.585938 16.707031 25.59375 C 18.328125 25.601562 19.632812 26.917969 19.625 28.535156 Z M 27.285156 16.636719 C 28.589844 16.398438 29.839844 17.257812 30.082031 18.5625 C 30.324219 19.867188 29.460938 21.121094 28.15625 21.363281 C 26.851562 21.605469 25.601562 20.742188 25.359375 19.4375 C 25.121094 18.132812 25.980469 16.878906 27.285156 16.636719 Z M 12.5625 1.125 L 13.976562 1.171875 C 14.636719 1.191406 15.160156 1.75 15.140625 2.410156 L 15.097656 3.71875 C 15.734375 3.933594 16.332031 4.226562 16.878906 4.589844 L 17.882812 3.648438 C 18.367188 3.195312 19.128906 3.21875 19.582031 3.703125 L 20.550781 4.730469 C 21.003906 5.214844 20.980469 5.980469 20.496094 6.433594 L 19.417969 7.445312 C 19.699219 7.996094 19.914062 8.582031 20.054688 9.199219 L 21.5625 9.246094 C 22.222656 9.265625 22.746094 9.824219 22.726562 10.488281 L 22.683594 11.902344 C 22.660156 12.558594 22.105469 13.085938 21.441406 13.0625 L 19.917969 13.015625 C 19.738281 13.617188 19.488281 14.183594 19.175781 14.710938 L 20.203125 15.808594 C 20.65625 16.289062 20.632812 17.054688 20.152344 17.503906 L 19.121094 18.472656 C 18.640625 18.925781 17.871094 18.902344 17.421875 18.421875 L 16.445312 17.382812 C 15.886719 17.703125 15.285156 17.957031 14.648438 18.125 L 14.605469 19.484375 C 14.585938 20.148438 14.027344 20.671875 13.367188 20.652344 L 11.953125 20.605469 C 11.292969 20.585938 10.769531 20.027344 10.789062 19.367188 L 10.828125 18.136719 C 10.144531 17.960938 9.5 17.691406 8.890625 17.332031 L 8.046875 18.128906 C 7.566406 18.582031 6.800781 18.558594 6.347656 18.074219 L 5.378906 17.042969 C 4.925781 16.5625 4.949219 15.800781 5.433594 15.34375 L 6.203125 14.617188 C 5.828125 13.972656 5.558594 13.289062 5.390625 12.5625 L 4.367188 12.53125 C 3.707031 12.507812 3.183594 11.953125 3.203125 11.289062 L 3.246094 9.875 C 3.269531 9.214844 3.824219 8.691406 4.488281 8.710938 L 5.492188 8.746094 C 5.703125 8.019531 6.023438 7.335938 6.429688 6.71875 L 5.726562 5.96875 C 5.273438 5.488281 5.296875 4.722656 5.777344 4.269531 L 6.808594 3.304688 C 7.289062 2.851562 8.054688 2.875 8.507812 3.355469 L 9.269531 4.167969 C 9.898438 3.84375 10.574219 3.605469 11.285156 3.46875 L 11.324219 2.289062 C 11.34375 1.628906 11.902344 1.105469 12.5625 1.125 Z M 26.1875 13.136719 L 27.054688 12.976562 C 27.457031 12.902344 27.847656 13.171875 27.921875 13.574219 L 28.070312 14.375 C 28.484375 14.417969 28.882812 14.519531 29.265625 14.667969 L 29.746094 13.960938 C 29.980469 13.625 30.445312 13.539062 30.785156 13.769531 L 31.507812 14.269531 C 31.84375 14.5 31.929688 14.964844 31.699219 15.304688 L 31.179688 16.0625 C 31.421875 16.359375 31.628906 16.6875 31.792969 17.039062 L 32.714844 16.871094 C 33.117188 16.796875 33.511719 17.066406 33.585938 17.46875 L 33.746094 18.332031 C 33.820312 18.734375 33.550781 19.125 33.148438 19.199219 L 32.214844 19.371094 C 32.1875 19.757812 32.113281 20.132812 31.988281 20.496094 L 32.757812 21.027344 C 33.097656 21.257812 33.183594 21.726562 32.949219 22.0625 L 32.453125 22.785156 C 32.222656 23.125 31.753906 23.210938 31.417969 22.980469 L 30.6875 22.476562 C 30.394531 22.746094 30.058594 22.976562 29.695312 23.164062 L 29.851562 23.992188 C 29.925781 24.398438 29.65625 24.789062 29.253906 24.863281 L 28.390625 25.023438 C 27.988281 25.097656 27.59375 24.828125 27.519531 24.425781 L 27.382812 23.675781 C 26.945312 23.660156 26.519531 23.582031 26.105469 23.441406 L 25.695312 24.035156 C 25.464844 24.375 24.996094 24.460938 24.65625 24.230469 L 23.933594 23.730469 C 23.597656 23.5 23.507812 23.035156 23.742188 22.695312 L 24.117188 22.152344 C 23.804688 21.8125 23.546875 21.433594 23.347656 21.015625 L 22.726562 21.128906 C 22.324219 21.203125 21.933594 20.933594 21.859375 20.53125 L 21.699219 19.667969 C 21.625 19.265625 21.890625 18.875 22.296875 18.796875 L 22.910156 18.683594 C 22.941406 18.21875 23.046875 17.765625 23.210938 17.335938 L 22.683594 16.972656 C 22.347656 16.742188 22.257812 16.273438 22.492188 15.9375 L 22.988281 15.214844 C 23.222656 14.875 23.691406 14.789062 24.027344 15.023438 L 24.59375 15.414062 C 24.933594 15.136719 25.3125 14.898438 25.722656 14.722656 L 25.589844 14.007812 C 25.515625 13.601562 25.785156 13.210938 26.1875 13.136719 Z M 26.1875 13.136719 " fill-opacity="1" fill-rule="evenodd"/></g></svg>