<svg xmlns="http://www.w3.org/2000/svg" xmlns:xlink="http://www.w3.org/1999/xlink" width="50" zoomAndPan="magnify" viewBox="0 0 37.5 37.499999" height="50" preserveAspectRatio="xMidYMid meet" version="1.0"><defs><clipPath id="4557063f3b"><path d="M 2.496094 12 L 11 12 L 11 25 L 2.496094 25 Z M 2.496094 12 " clip-rule="nonzero"/></clipPath><clipPath id="cd49940982"><path d="M 11 4.636719 L 33.582031 4.636719 L 33.582031 32.023438 L 11 32.023438 Z M 11 4.636719 " clip-rule="nonzero"/></clipPath></defs><path fill="#f9f9f9" d="M 4.179688 16.964844 L 22.574219 16.964844 L 22.574219 20.03125 L 4.179688 20.03125 Z M 4.179688 16.964844 " fill-opacity="1" fill-rule="evenodd"/><g clip-path="url(#4557063f3b)"><path fill="#f9f9f9" d="M 8.460938 12.050781 L 3.097656 17.414062 C 2.5 18.011719 2.5 18.984375 3.097656 19.582031 L 8.460938 24.945312 L 10.628906 22.777344 L 6.347656 18.5 L 10.628906 14.21875 Z M 8.460938 12.050781 " fill-opacity="1" fill-rule="evenodd"/></g><g clip-path="url(#cd49940982)"><path fill="#f9f9f9" d="M 11.84375 6.238281 C 11.84375 5.390625 12.53125 4.703125 13.378906 4.703125 L 31.769531 4.703125 C 32.617188 4.703125 33.304688 5.390625 33.304688 6.238281 L 33.304688 30.761719 C 33.304688 31.605469 32.617188 32.292969 31.769531 32.292969 L 13.378906 32.292969 C 12.53125 32.292969 11.84375 31.605469 11.84375 30.761719 L 11.84375 26.160156 L 14.910156 26.160156 L 14.910156 29.226562 L 30.238281 29.226562 L 30.238281 7.769531 L 14.910156 7.769531 L 14.910156 10.835938 L 11.84375 10.835938 Z M 11.84375 6.238281 " fill-opacity="1" fill-rule="evenodd"/></g></svg>