<svg xmlns="http://www.w3.org/2000/svg" xmlns:xlink="http://www.w3.org/1999/xlink" width="50" zoomAndPan="magnify" viewBox="0 0 37.5 37.499999" height="50" preserveAspectRatio="xMidYMid meet" version="1.0"><defs><clipPath id="adadf735b7"><path d="M 3.265625 0.628906 L 33.609375 0.628906 L 33.609375 36.15625 L 3.265625 36.15625 Z M 3.265625 0.628906 " clip-rule="nonzero"/></clipPath></defs><g clip-path="url(#adadf735b7)"><path fill="#f9f9f9" d="M 14.847656 4.125 L 22.125 4.125 C 22.503906 4.125 22.828125 4.257812 23.09375 4.527344 L 28.859375 10.292969 C 29.128906 10.558594 29.261719 10.882812 29.261719 11.261719 L 29.261719 17.589844 C 29.019531 17.78125 28.800781 18.011719 28.605469 18.289062 L 27.828125 19.402344 C 27.636719 19.675781 27.53125 19.980469 27.5 20.289062 C 27.476562 20.300781 27.457031 20.3125 27.433594 20.324219 L 27.433594 11.542969 L 23.769531 11.542969 C 22.710938 11.542969 21.84375 10.679688 21.84375 9.617188 L 21.84375 5.953125 L 15.070312 5.953125 C 15.070312 5.914062 15.070312 5.875 15.070312 5.835938 C 15.070312 5.242188 14.992188 4.671875 14.847656 4.125 Z M 8.46875 0.628906 C 11.34375 0.628906 13.675781 2.960938 13.675781 5.835938 C 13.675781 8.710938 11.34375 11.039062 8.46875 11.039062 C 5.59375 11.039062 3.265625 8.710938 3.265625 5.835938 C 3.265625 2.960938 5.59375 0.628906 8.46875 0.628906 Z M 4.871094 5.335938 L 5.101562 5.105469 C 5.277344 4.929688 5.566406 4.929688 5.742188 5.105469 L 7.570312 6.933594 L 11.191406 3.308594 C 11.367188 3.132812 11.65625 3.132812 11.832031 3.308594 L 12.070312 3.546875 C 12.246094 3.722656 12.246094 4.011719 12.070312 4.1875 L 8.125 8.128906 L 7.894531 8.359375 C 7.71875 8.535156 7.429688 8.535156 7.253906 8.359375 L 4.871094 5.976562 C 4.695312 5.800781 4.695312 5.511719 4.871094 5.335938 Z M 31.074219 23.335938 L 29.835938 22.464844 L 28.59375 21.597656 C 28.371094 21.441406 28.070312 21.488281 27.921875 21.699219 L 21.597656 30.734375 C 21.566406 30.777344 21.566406 30.832031 21.597656 30.871094 C 21.628906 30.914062 21.679688 30.929688 21.730469 30.914062 C 22.324219 30.710938 22.625 31.253906 22.859375 31.914062 C 22.898438 32.015625 22.964844 32.101562 23.046875 32.160156 C 23.132812 32.222656 23.234375 32.253906 23.34375 32.253906 C 24.046875 32.25 24.660156 32.34375 24.671875 32.972656 C 24.675781 33.023438 24.707031 33.066406 24.757812 33.082031 C 24.804688 33.097656 24.855469 33.078125 24.886719 33.035156 L 31.210938 24 C 31.359375 23.789062 31.296875 23.488281 31.074219 23.335938 Z M 24.027344 33.933594 L 24.023438 33.355469 C 24.023438 33.203125 23.953125 33.066406 23.824219 32.964844 C 23.699219 32.867188 23.550781 32.859375 23.398438 32.871094 L 22.996094 32.898438 C 22.847656 32.910156 22.710938 32.90625 22.589844 32.820312 C 22.464844 32.730469 22.414062 32.605469 22.375 32.464844 L 22.261719 32.074219 C 22.222656 31.925781 22.160156 31.792969 22.027344 31.707031 C 21.890625 31.621094 21.738281 31.601562 21.59375 31.65625 L 21.050781 31.847656 C 20.851562 31.921875 20.714844 32.078125 20.675781 32.285156 L 19.980469 35.746094 C 19.941406 35.9375 20.023438 36.128906 20.191406 36.242188 C 20.359375 36.359375 20.5625 36.371094 20.730469 36.269531 L 23.746094 34.433594 C 23.925781 34.324219 24.027344 34.144531 24.027344 33.933594 Z M 31.546875 22.605469 L 29.117188 20.90625 C 28.882812 20.742188 28.816406 20.421875 28.972656 20.199219 L 29.75 19.089844 C 30.449219 18.085938 31.621094 18.15625 32.441406 18.730469 C 33.269531 19.304688 33.742188 20.386719 33.039062 21.390625 L 32.257812 22.503906 C 32.105469 22.726562 31.78125 22.773438 31.546875 22.605469 Z M 11.804688 11.824219 L 24.238281 11.824219 C 25.175781 11.824219 25.941406 12.59375 25.941406 13.53125 C 25.941406 14.46875 25.175781 15.234375 24.238281 15.234375 L 11.804688 15.234375 C 10.867188 15.234375 10.101562 14.46875 10.101562 13.53125 C 10.101562 12.59375 10.867188 11.824219 11.804688 11.824219 Z M 11.804688 18.417969 L 24.238281 18.417969 C 25.175781 18.417969 25.941406 19.183594 25.941406 20.121094 C 25.941406 21.058594 25.175781 21.824219 24.238281 21.824219 L 11.804688 21.824219 C 10.867188 21.824219 10.101562 21.058594 10.101562 20.121094 C 10.101562 19.183594 10.867188 18.417969 11.804688 18.417969 Z M 11.804688 25.097656 L 23.839844 25.097656 L 21.453125 28.507812 L 11.804688 28.507812 C 10.867188 28.507812 10.101562 27.738281 10.101562 26.800781 C 10.101562 25.863281 10.867188 25.097656 11.804688 25.097656 Z M 8.609375 12.433594 L 8.609375 30.984375 C 8.609375 31.1875 8.765625 31.34375 8.96875 31.34375 L 19.570312 31.34375 C 19.445312 31.542969 19.355469 31.769531 19.304688 32.011719 L 19.074219 33.171875 L 8.96875 33.171875 C 7.769531 33.171875 6.78125 32.183594 6.78125 30.984375 L 6.78125 12.214844 C 7.320312 12.359375 7.886719 12.433594 8.46875 12.433594 C 8.515625 12.433594 8.5625 12.433594 8.609375 12.433594 Z M 29.261719 29.214844 L 29.261719 30.984375 C 29.261719 32.191406 28.28125 33.171875 27.074219 33.171875 L 26.492188 33.171875 Z M 29.261719 29.214844 " fill-opacity="1" fill-rule="evenodd"/></g></svg>