<svg xmlns="http://www.w3.org/2000/svg" xmlns:xlink="http://www.w3.org/1999/xlink" width="50" zoomAndPan="magnify" viewBox="0 0 37.5 37.499999" height="50" preserveAspectRatio="xMidYMid meet" version="1.0"><defs><clipPath id="3d728327c9"><path d="M 4 27.1875 L 12 27.1875 L 12 33.628906 L 4 33.628906 Z M 4 27.1875 " clip-rule="nonzero"/></clipPath><clipPath id="1d87e763f6"><path d="M 15.007812 23.203125 L 22.976562 23.203125 L 22.976562 33.628906 L 15.007812 33.628906 Z M 15.007812 23.203125 " clip-rule="nonzero"/></clipPath><clipPath id="347861a620"><path d="M 26 3.285156 L 34 3.285156 L 34 14 L 26 14 Z M 26 3.285156 " clip-rule="nonzero"/></clipPath><clipPath id="d4072c7c8a"><path d="M 26 17.625 L 34 17.625 L 34 33.628906 L 26 33.628906 Z M 26 17.625 " clip-rule="nonzero"/></clipPath></defs><path fill="#f9f9f9" d="M 8.394531 19.867188 C 9.207031 19.867188 9.984375 20.125 10.570312 20.644531 L 11.828125 19.570312 L 11.828125 15.4375 C 11.828125 14.882812 11.386719 14.402344 10.796875 14.402344 L 5.402344 14.402344 C 4.847656 14.402344 4.367188 14.84375 4.367188 15.4375 L 4.367188 21.457031 L 6.769531 20.234375 C 7.285156 20.015625 7.839844 19.867188 8.394531 19.867188 " fill-opacity="1" fill-rule="nonzero"/><g clip-path="url(#3d728327c9)"><path fill="#f9f9f9" d="M 8.429688 27.882812 L 7.914062 27.476562 L 4.734375 29.066406 C 4.628906 29.136719 4.515625 29.175781 4.367188 29.210938 L 4.367188 32.574219 C 4.367188 33.128906 4.8125 33.605469 5.402344 33.605469 L 10.796875 33.605469 C 11.351562 33.605469 11.828125 33.164062 11.828125 32.574219 L 11.828125 28.4375 C 11.421875 28.582031 11.054688 28.65625 10.609375 28.65625 C 9.835938 28.65625 9.058594 28.398438 8.429688 27.882812 " fill-opacity="1" fill-rule="nonzero"/></g><path fill="#f9f9f9" d="M 16.445312 17.136719 L 18.996094 17.464844 L 22.464844 13.402344 C 22.542969 13.328125 22.613281 13.21875 22.6875 13.144531 L 22.6875 9.859375 C 22.6875 9.304688 22.246094 8.824219 21.65625 8.824219 L 16.300781 8.824219 C 15.746094 8.824219 15.265625 9.265625 15.265625 9.859375 L 15.265625 17.171875 C 15.523438 17.136719 15.746094 17.097656 16.003906 17.097656 C 16.1875 17.097656 16.335938 17.136719 16.445312 17.136719 " fill-opacity="1" fill-rule="nonzero"/><g clip-path="url(#1d87e763f6)"><path fill="#f9f9f9" d="M 19.992188 24.597656 L 17.113281 24.226562 L 15.265625 25.8125 L 15.265625 32.609375 C 15.265625 33.164062 15.707031 33.644531 16.300781 33.644531 L 21.691406 33.644531 C 22.246094 33.644531 22.726562 33.203125 22.726562 32.609375 L 22.726562 23.746094 C 22.097656 24.300781 21.285156 24.597656 20.4375 24.597656 C 20.289062 24.597656 20.140625 24.597656 19.992188 24.597656 " fill-opacity="1" fill-rule="nonzero"/></g><g clip-path="url(#347861a620)"><path fill="#f9f9f9" d="M 28.265625 13.476562 L 32.03125 8.601562 C 32.441406 8.082031 32.957031 7.679688 33.585938 7.492188 L 33.585938 4.316406 C 33.585938 3.761719 33.140625 3.28125 32.550781 3.28125 L 27.160156 3.285156 C 26.605469 3.285156 26.125 3.726562 26.125 4.316406 L 26.125 12.371094 C 26.382812 12.445312 26.605469 12.515625 26.824219 12.664062 L 28.265625 13.476562 " fill-opacity="1" fill-rule="nonzero"/></g><g clip-path="url(#d4072c7c8a)"><path fill="#f9f9f9" d="M 29.152344 21.492188 C 28.5625 21.492188 27.933594 21.347656 27.417969 21.050781 L 26.125 20.308594 L 26.125 32.648438 C 26.125 33.203125 26.566406 33.679688 27.160156 33.679688 L 32.550781 33.679688 C 33.105469 33.679688 33.585938 33.238281 33.585938 32.648438 L 33.585938 17.949219 L 31.921875 20.125 C 31.257812 21.011719 30.261719 21.492188 29.152344 21.492188 " fill-opacity="1" fill-rule="nonzero"/></g><path fill="#f9f9f9" d="M 35.875 9.339844 C 35.136719 8.75 34.027344 8.894531 33.4375 9.636719 L 28.707031 15.769531 L 25.976562 14.179688 C 25.238281 13.773438 24.351562 13.917969 23.796875 14.546875 L 19.730469 19.3125 L 16.261719 18.871094 C 15.777344 18.796875 15.300781 18.945312 14.933594 19.277344 L 10.648438 22.933594 L 9.5 22.007812 C 8.984375 21.566406 8.246094 21.492188 7.617188 21.789062 L 2.410156 24.445312 C 1.5625 24.890625 1.226562 25.925781 1.632812 26.773438 C 1.929688 27.367188 2.558594 27.734375 3.1875 27.734375 C 3.445312 27.734375 3.703125 27.660156 3.960938 27.550781 L 8.136719 25.40625 L 9.5 26.554688 C 10.167969 27.070312 11.089844 27.070312 11.71875 26.515625 L 16.519531 22.417969 L 20.140625 22.859375 C 20.730469 22.933594 21.285156 22.710938 21.65625 22.265625 L 25.421875 17.910156 L 28.230469 19.535156 C 28.96875 19.976562 29.929688 19.792969 30.484375 19.09375 L 36.097656 11.816406 C 36.761719 11.039062 36.613281 9.933594 35.875 9.339844 " fill-opacity="1" fill-rule="nonzero"/></svg>