<svg xmlns="http://www.w3.org/2000/svg" xmlns:xlink="http://www.w3.org/1999/xlink" width="50" zoomAndPan="magnify" viewBox="0 0 37.5 37.499999" height="50" preserveAspectRatio="xMidYMid meet" version="1.0"><defs><clipPath id="2018856cea"><path d="M 1.960938 1.960938 L 35.265625 1.960938 L 35.265625 35.265625 L 1.960938 35.265625 Z M 1.960938 1.960938 " clip-rule="nonzero"/></clipPath></defs><g clip-path="url(#2018856cea)"><path fill="#a6a6a6" d="M 30.191406 6.804688 C 27.070312 3.679688 22.917969 1.960938 18.5 1.960938 C 14.082031 1.960938 9.929688 3.679688 6.804688 6.804688 C 3.679688 9.929688 1.960938 14.082031 1.960938 18.5 C 1.960938 22.914062 3.679688 27.070312 6.804688 30.191406 C 9.929688 33.316406 14.082031 35.035156 18.5 35.035156 C 22.917969 35.035156 27.070312 33.316406 30.191406 30.191406 C 33.316406 27.070312 35.035156 22.917969 35.035156 18.5 C 35.035156 14.082031 33.316406 9.929688 30.191406 6.804688 Z M 30.191406 6.804688 " fill-opacity="1" fill-rule="nonzero"/></g><path fill="#ffffff" d="M 22.449219 10.644531 C 22.707031 10.902344 22.9375 11.183594 23.144531 11.492188 C 23.347656 11.796875 23.519531 12.117188 23.660156 12.457031 C 23.800781 12.792969 23.90625 13.144531 23.976562 13.503906 C 24.046875 13.863281 24.085938 14.226562 24.085938 14.59375 C 24.085938 14.960938 24.046875 15.324219 23.976562 15.683594 C 23.90625 16.042969 23.800781 16.390625 23.660156 16.730469 C 23.519531 17.070312 23.347656 17.390625 23.144531 17.695312 C 22.9375 18 22.707031 18.285156 22.449219 18.542969 C 22.1875 18.800781 21.90625 19.035156 21.601562 19.238281 C 21.296875 19.441406 20.976562 19.613281 20.636719 19.753906 C 20.296875 19.894531 19.949219 20 19.589844 20.070312 C 19.230469 20.144531 18.867188 20.179688 18.5 20.179688 C 18.132812 20.179688 17.769531 20.144531 17.410156 20.070312 C 17.050781 20 16.699219 19.894531 16.363281 19.753906 C 16.023438 19.613281 15.699219 19.441406 15.394531 19.238281 C 15.089844 19.035156 14.808594 18.800781 14.550781 18.542969 C 14.289062 18.285156 14.058594 18 13.855469 17.695312 C 13.652344 17.390625 13.480469 17.070312 13.339844 16.730469 C 13.199219 16.390625 13.09375 16.042969 13.019531 15.683594 C 12.949219 15.324219 12.914062 14.960938 12.914062 14.59375 C 12.914062 14.226562 12.949219 13.863281 13.019531 13.503906 C 13.09375 13.144531 13.199219 12.792969 13.339844 12.457031 C 13.480469 12.117188 13.652344 11.796875 13.855469 11.492188 C 14.058594 11.183594 14.289062 10.902344 14.550781 10.644531 C 14.808594 10.382812 15.089844 10.152344 15.394531 9.949219 C 15.699219 9.746094 16.023438 9.574219 16.363281 9.433594 C 16.699219 9.292969 17.050781 9.1875 17.410156 9.117188 C 17.769531 9.042969 18.132812 9.007812 18.5 9.007812 C 18.867188 9.007812 19.230469 9.042969 19.589844 9.117188 C 19.949219 9.1875 20.296875 9.292969 20.636719 9.433594 C 20.976562 9.574219 21.296875 9.746094 21.601562 9.949219 C 21.90625 10.152344 22.1875 10.382812 22.449219 10.644531 Z M 22.449219 10.644531 " fill-opacity="1" fill-rule="nonzero"/><path fill="#ffffff" d="M 18.660156 22.660156 L 18.335938 22.660156 C 13.773438 22.660156 9.929688 25.742188 8.773438 29.9375 C 11.394531 32.171875 14.792969 33.519531 18.5 33.519531 C 22.207031 33.519531 25.601562 32.171875 28.226562 29.9375 C 27.066406 25.742188 23.222656 22.660156 18.660156 22.660156 Z M 18.660156 22.660156 " fill-opacity="1" fill-rule="nonzero"/></svg>